<?xml version="1.0" standalone="no"?><!DOCTYPE svg PUBLIC "-//W3C//DTD SVG 1.1//EN" "http://www.w3.org/Graphics/SVG/1.1/DTD/svg11.dtd"><svg id="SvgjsSvg1151" width="220" height="100" version="1.1" xmlns:xlink="http://www.w3.org/1999/xlink" xmlns:svgjs="http://svgjs.com/svgjs" class="apexcharts-svg" xmlns:data="ApexChartsNS" transform="translate(0, 0)" style="background: transparent;" xmlns="http://www.w3.org/2000/svg"><defs xmlns="http://www.w3.org/1999/xhtml"><style type="text/css"><![CDATA[]]></style></defs><g id="SvgjsG1153" class="apexcharts-inner apexcharts-graphical" transform="translate(0, 0)"><defs id="SvgjsDefs1152"><clipPath id="gridRectMaskcveeogpjh"><rect id="SvgjsRect1157" width="222.5" height="102.5" x="-1.25" y="-1.25" rx="0" ry="0" fill="#ffffff" opacity="1" stroke-width="0" stroke="none" stroke-dasharray="0"/></clipPath><clipPath id="gridRectMarkerMaskcveeogpjh"><rect id="SvgjsRect1158" width="222" height="102" x="-1" y="-1" rx="0" ry="0" fill="#ffffff" opacity="1" stroke-width="0" stroke="none" stroke-dasharray="0"/></clipPath><linearGradient id="SvgjsLinearGradient1164" x1="0" y1="0" x2="0" y2="1"><stop id="SvgjsStop1165" stop-opacity="0.5" stop-color="rgba(255,159,67,0.5)" offset="0"/><stop id="SvgjsStop1166" stop-opacity="0.2" stop-color="rgba(255,245,236,0.2)" offset="0.8"/><stop id="SvgjsStop1167" stop-opacity="0.2" stop-color="rgba(255,245,236,0.2)" offset="1"/></linearGradient></defs><line id="SvgjsLine1156" x1="36.16666666666667" y1="0" x2="36.16666666666667" y2="100" stroke="#b6b6b6" stroke-dasharray="3" class="apexcharts-xcrosshairs" x="36.16666666666667" y="0" width="1" height="100" fill="#b1b9c4" filter="none" fill-opacity="0.9" stroke-width="1"/><g id="SvgjsG1170" class="apexcharts-xaxis" transform="translate(0, 0)"><g id="SvgjsG1171" class="apexcharts-xaxis-texts-g" transform="translate(0, -4)"/></g><g id="SvgjsG1174" class="apexcharts-grid"><g id="SvgjsG1175" class="apexcharts-gridlines-horizontal" style="display: none;"><line id="SvgjsLine1177" x1="0" y1="0" x2="220" y2="0" stroke="#e0e0e0" stroke-dasharray="0" class="apexcharts-gridline"/><line id="SvgjsLine1178" x1="0" y1="20" x2="220" y2="20" stroke="#e0e0e0" stroke-dasharray="0" class="apexcharts-gridline"/><line id="SvgjsLine1179" x1="0" y1="40" x2="220" y2="40" stroke="#e0e0e0" stroke-dasharray="0" class="apexcharts-gridline"/><line id="SvgjsLine1180" x1="0" y1="60" x2="220" y2="60" stroke="#e0e0e0" stroke-dasharray="0" class="apexcharts-gridline"/><line id="SvgjsLine1181" x1="0" y1="80" x2="220" y2="80" stroke="#e0e0e0" stroke-dasharray="0" class="apexcharts-gridline"/><line id="SvgjsLine1182" x1="0" y1="100" x2="220" y2="100" stroke="#e0e0e0" stroke-dasharray="0" class="apexcharts-gridline"/></g><g id="SvgjsG1176" class="apexcharts-gridlines-vertical" style="display: none;"/><line id="SvgjsLine1184" x1="0" y1="100" x2="220" y2="100" stroke="transparent" stroke-dasharray="0"/><line id="SvgjsLine1183" x1="0" y1="1" x2="0" y2="100" stroke="transparent" stroke-dasharray="0"/></g><g id="SvgjsG1160" class="apexcharts-area-series apexcharts-plot-series"><g id="SvgjsG1161" class="apexcharts-series" seriesName="Orders" data:longestSeries="true" rel="1" data:realIndex="0"><path id="SvgjsPath1168" d="M0 100L0 60C12.833333333333334 60 23.833333333333336 10 36.66666666666667 10C49.50000000000001 10 60.50000000000001 80 73.33333333333334 80C86.16666666666667 80 97.16666666666667 10 110 10C122.83333333333334 10 133.83333333333334 90 146.66666666666669 90C159.5 90 170.5 40 183.33333333333334 40C196.16666666666669 40 207.16666666666669 80 220 80C220 80 220 80 220 100M220 80C220 80 220 80 220 80 " fill="url(#SvgjsLinearGradient1164)" fill-opacity="1" stroke-opacity="1" stroke-linecap="butt" stroke-width="0" stroke-dasharray="0" class="apexcharts-area" index="0" clip-path="url(#gridRectMaskcveeogpjh)" pathTo="M 0 100L 0 60C 12.833333333333334 60 23.833333333333336 10 36.66666666666667 10C 49.50000000000001 10 60.50000000000001 80 73.33333333333334 80C 86.16666666666667 80 97.16666666666667 10 110 10C 122.83333333333334 10 133.83333333333334 90 146.66666666666669 90C 159.5 90 170.5 40 183.33333333333334 40C 196.16666666666669 40 207.16666666666669 80 220 80C 220 80 220 80 220 100M 220 80z" pathFrom="M -1 160L -1 160L 36.66666666666667 160L 73.33333333333334 160L 110 160L 146.66666666666669 160L 183.33333333333334 160L 220 160"/><path id="SvgjsPath1169" d="M0 60C12.833333333333334 60 23.833333333333336 10 36.66666666666667 10C49.50000000000001 10 60.50000000000001 80 73.33333333333334 80C86.16666666666667 80 97.16666666666667 10 110 10C122.83333333333334 10 133.83333333333334 90 146.66666666666669 90C159.5 90 170.5 40 183.33333333333334 40C196.16666666666669 40 207.16666666666669 80 220 80C220 80 220 80 220 80 " fill="none" fill-opacity="1" stroke="#ff9f43" stroke-opacity="1" stroke-linecap="butt" stroke-width="2.5" stroke-dasharray="0" class="apexcharts-area" index="0" clip-path="url(#gridRectMaskcveeogpjh)" pathTo="M 0 60C 12.833333333333334 60 23.833333333333336 10 36.66666666666667 10C 49.50000000000001 10 60.50000000000001 80 73.33333333333334 80C 86.16666666666667 80 97.16666666666667 10 110 10C 122.83333333333334 10 133.83333333333334 90 146.66666666666669 90C 159.5 90 170.5 40 183.33333333333334 40C 196.16666666666669 40 207.16666666666669 80 220 80" pathFrom="M -1 160L -1 160L 36.66666666666667 160L 73.33333333333334 160L 110 160L 146.66666666666669 160L 183.33333333333334 160L 220 160"/><g id="SvgjsG1162" class="apexcharts-series-markers-wrap"><g class="apexcharts-series-markers"><circle id="SvgjsCircle1190" r="0" cx="36.66666666666667" cy="10" class="apexcharts-marker wpr4heqwg no-pointer-events" stroke="#ffffff" fill="#ff9f43" fill-opacity="1" stroke-width="2" stroke-opacity="0.9" default-marker-size="0"/></g></g></g><g id="SvgjsG1163" class="apexcharts-datalabels"/></g><line id="SvgjsLine1185" x1="0" y1="0" x2="220" y2="0" stroke="#b6b6b6" stroke-dasharray="0" stroke-width="1" class="apexcharts-ycrosshairs"/><line id="SvgjsLine1186" x1="0" y1="0" x2="220" y2="0" stroke-dasharray="0" stroke-width="0" class="apexcharts-ycrosshairs-hidden"/><g id="SvgjsG1187" class="apexcharts-yaxis-annotations"/><g id="SvgjsG1188" class="apexcharts-xaxis-annotations"/><g id="SvgjsG1189" class="apexcharts-point-annotations"/></g><rect id="SvgjsRect1155" width="0" height="0" x="0" y="0" rx="0" ry="0" fill="#fefefe" opacity="1" stroke-width="0" stroke="none" stroke-dasharray="0"/><g id="SvgjsG1172" class="apexcharts-yaxis" rel="0" transform="translate(-21, 0)"><g id="SvgjsG1173" class="apexcharts-yaxis-texts-g"/></g></svg>